<?xml version="1.0" standalone="no"?>
<!DOCTYPE svg PUBLIC "-//W3C//DTD SVG 20010904//EN"
 "http://www.w3.org/TR/2001/REC-SVG-20010904/DTD/svg10.dtd">
<svg version="1.0" xmlns="http://www.w3.org/2000/svg"
 width="2100.000000pt" height="2100.000000pt" viewBox="0 0 2100.000000 2100.000000"
 preserveAspectRatio="xMidYMid meet">

<g transform="translate(0.000000,2100.000000) scale(0.100000,-0.100000)"
fill="#000000" stroke="none">
<path d="M10355 20379 c-157 -14 -514 -75 -810 -138 -148 -32 -342 -72 -430
-89 -185 -36 -391 -91 -620 -165 -116 -38 -180 -53 -232 -55 -54 -3 -73 -8
-73 -18 0 -10 15 -14 58 -14 31 0 113 -7 182 -15 178 -21 327 -19 550 10 546
68 928 90 1450 82 434 -7 743 -22 885 -42 185 -26 572 -134 878 -245 216 -78
422 -128 799 -194 158 -28 222 -54 325 -132 87 -67 202 -186 238 -248 46 -79
111 -234 181 -437 37 -107 96 -266 132 -354 87 -216 101 -258 187 -564 110
-387 154 -639 175 -991 6 -102 19 -252 28 -335 33 -289 20 -977 -23 -1252 -13
-80 -80 -329 -118 -437 l-13 -39 -90 146 c-49 81 -108 181 -132 224 -23 43
-78 119 -122 168 -43 50 -118 144 -167 210 -136 187 -414 467 -658 665 -66 53
-163 134 -215 179 -52 46 -124 99 -160 118 -198 109 -233 139 -330 283 -77
115 -190 234 -264 279 -31 18 -126 62 -213 97 -174 70 -282 129 -392 213 -41
31 -135 102 -210 159 -74 56 -175 140 -224 185 -125 116 -304 243 -459 327
-261 141 -350 214 -549 447 -195 229 -482 519 -599 606 -52 39 -163 136 -246
216 -244 237 -387 367 -424 386 -19 10 -56 33 -81 51 -26 19 -77 46 -115 62
-38 15 -129 68 -203 116 -99 66 -144 90 -175 93 -96 11 -334 -58 -573 -166
-131 -59 -151 -71 -423 -249 -235 -154 -334 -229 -440 -334 -41 -40 -129 -115
-195 -165 -66 -50 -156 -123 -200 -162 -44 -38 -104 -85 -133 -103 -104 -65
-138 -95 -217 -195 -44 -56 -102 -129 -130 -163 -105 -128 -150 -222 -185
-383 -11 -51 -34 -132 -52 -182 -41 -116 -46 -231 -11 -266 l21 -22 -28 -39
c-41 -56 -64 -132 -62 -205 2 -71 60 -266 92 -306 l20 -25 -35 -97 c-19 -53
-58 -178 -86 -278 -56 -196 -145 -419 -256 -642 -71 -141 -122 -281 -148 -407
-17 -77 -21 -397 -6 -460 l9 -37 -44 22 c-76 37 -82 -10 -13 -117 16 -26 25
-45 20 -42 -25 16 -17 -15 14 -50 19 -21 35 -42 35 -46 0 -4 17 -19 37 -33 40
-26 81 -32 113 -15 23 12 19 26 -23 90 l-29 45 31 -29 c35 -33 71 -101 71
-134 0 -38 -119 -257 -172 -319 -58 -65 -201 -279 -243 -363 -38 -76 -204
-338 -279 -440 -35 -47 -80 -116 -100 -153 -21 -38 -71 -108 -112 -157 -138
-165 -239 -345 -255 -455 -8 -61 -7 -78 18 -164 26 -93 29 -98 97 -166 41 -41
97 -84 131 -102 56 -29 69 -31 200 -36 77 -4 178 -13 225 -21 47 -8 110 -18
141 -21 47 -5 60 -11 78 -36 19 -25 22 -41 20 -102 -3 -98 -11 -121 -62 -176
-57 -61 -70 -87 -63 -124 5 -23 -1 -42 -25 -80 -29 -47 -59 -118 -59 -138 0
-4 7 -15 16 -24 19 -19 47 -15 132 20 40 16 97 27 190 35 l133 13 35 -34 35
-34 54 30 54 29 55 -17 c40 -13 60 -15 81 -7 43 16 139 12 227 -11 98 -25 231
-23 320 6 l56 18 33 -27 c27 -23 38 -26 67 -21 25 5 39 2 52 -10 10 -9 36 -23
57 -30 21 -7 46 -24 55 -37 21 -28 38 -125 20 -114 -7 4 -12 20 -12 36 0 34
-29 55 -63 44 -20 -6 -20 -5 -8 10 10 12 11 20 3 28 -7 7 -22 1 -52 -23 -41
-33 -45 -34 -143 -37 -78 -3 -135 3 -240 22 -262 49 -441 54 -753 20 -49 -6
-51 -5 -64 25 -13 33 -40 42 -40 14 0 -28 42 -80 82 -103 20 -11 48 -35 62
-53 59 -75 48 -71 165 -64 58 4 150 15 203 26 54 11 182 30 285 41 103 11 206
22 227 25 22 3 37 3 34 0 -2 -3 -51 -24 -109 -48 -57 -24 -130 -58 -162 -75
-108 -58 -317 -119 -471 -137 -76 -9 -144 -19 -152 -22 -22 -8 1 56 32 88 32
34 25 53 -14 38 -43 -16 -61 -38 -79 -97 -16 -51 -16 -55 0 -67 11 -8 17 -26
17 -54 0 -38 13 -77 29 -91 3 -3 36 -37 73 -76 59 -63 69 -79 92 -155 14 -46
30 -122 34 -169 10 -98 -1 -148 -52 -233 -26 -42 -36 -50 -64 -52 -46 -4 -105
-46 -128 -92 -11 -24 -18 -60 -19 -98 l0 -60 34 2 33 1 -6 -41 c-3 -23 -9 -74
-13 -114 -6 -70 -5 -73 29 -125 20 -29 45 -71 56 -93 11 -22 62 -85 112 -139
50 -55 102 -121 116 -148 43 -86 78 -107 111 -68 27 32 51 24 81 -25 30 -51
87 -85 143 -85 23 0 51 -12 88 -37 53 -37 57 -38 145 -38 80 -1 96 -4 131 -27
31 -20 71 -31 181 -48 186 -29 431 -25 534 10 82 27 136 23 225 -18 74 -35
110 -39 139 -17 29 22 40 18 24 -7 -8 -13 -22 -44 -30 -69 -21 -61 -10 -79 47
-79 26 0 45 -5 48 -12 2 -7 -7 -41 -20 -76 -12 -34 -23 -69 -23 -77 0 -8 21
-36 46 -62 l46 -46 -7 -63 c-4 -42 -2 -70 6 -85 6 -13 20 -57 31 -98 10 -41
27 -90 38 -108 l20 -34 -54 -87 c-30 -48 -70 -105 -89 -127 -34 -39 -35 -39
-54 -22 -51 45 -130 8 -254 -119 -189 -194 -386 -487 -639 -949 -52 -93 -129
-230 -172 -304 -101 -170 -137 -244 -233 -466 -87 -201 -114 -289 -150 -485
-34 -180 -50 -234 -107 -369 -69 -163 -80 -213 -79 -365 0 -72 5 -134 11 -140
12 -12 15 -4 35 127 31 200 117 505 200 708 92 225 174 371 406 720 181 275
245 405 299 609 45 169 91 293 142 378 20 33 92 111 186 201 85 80 193 196
242 256 48 61 98 119 110 130 l23 20 46 -55 c25 -30 98 -109 162 -175 131
-136 313 -358 347 -424 24 -48 28 -94 11 -138 -6 -15 -55 -87 -109 -158 -149
-198 -234 -341 -293 -500 -38 -99 -168 -561 -212 -747 -20 -87 -59 -230 -86
-319 -27 -89 -56 -191 -64 -228 -21 -102 -78 -251 -155 -408 -73 -148 -81
-177 -54 -187 34 -13 71 -4 165 39 113 52 232 88 339 104 41 6 203 13 360 15
347 6 511 29 965 131 83 19 263 50 400 71 174 25 322 54 487 95 348 87 485
139 647 246 117 77 509 470 882 883 362 401 538 585 719 752 80 73 208 194
285 268 78 74 217 204 311 289 93 85 243 229 334 320 205 206 437 409 694 610
183 142 299 241 519 442 76 71 87 85 87 114 0 38 -6 44 -210 201 -205 158
-238 197 -352 409 -36 66 -77 140 -93 165 -46 73 -83 175 -125 344 -22 88 -38
161 -36 163 2 2 37 -54 79 -124 67 -112 160 -314 211 -454 20 -57 89 -174 125
-212 36 -40 71 -56 154 -72 106 -20 564 -143 596 -159 17 -9 41 -40 61 -78 38
-71 144 -247 212 -353 25 -38 93 -128 152 -200 59 -71 140 -181 179 -243 75
-118 194 -297 334 -504 91 -134 143 -228 198 -363 55 -134 160 -336 210 -404
87 -118 326 -379 551 -603 259 -256 296 -307 390 -524 71 -163 94 -251 101
-389 7 -134 -6 -220 -53 -368 -88 -270 -197 -421 -439 -602 -144 -108 -181
-130 -257 -156 -58 -19 -86 -21 -333 -22 -294 -2 -432 8 -730 53 -104 15 -210
31 -235 34 -78 11 -78 3 -11 212 82 258 84 267 84 369 -1 111 -26 198 -83 283
-80 120 -200 209 -473 352 -158 82 -158 82 -215 159 -31 42 -89 126 -129 186
-142 215 -181 262 -419 505 -132 135 -254 263 -272 286 -23 30 -41 75 -67 173
-58 212 -128 386 -170 421 -84 70 56 -396 167 -552 11 -16 32 -70 48 -120 54
-171 124 -287 301 -498 150 -179 305 -321 486 -444 59 -40 90 -73 172 -180
176 -232 220 -314 306 -569 30 -90 54 -189 75 -311 22 -131 37 -192 55 -224
37 -66 21 -89 -92 -135 -48 -19 -124 -51 -168 -70 -44 -20 -123 -47 -175 -61
-52 -13 -140 -41 -195 -61 -55 -20 -165 -52 -245 -71 -213 -51 -222 -54 -515
-201 -351 -176 -421 -218 -639 -381 -301 -226 -385 -318 -571 -619 -248 -400
-387 -572 -800 -993 -334 -340 -537 -620 -664 -915 -38 -88 -62 -131 -74 -133
-10 -2 -40 17 -72 46 -105 96 -183 117 -410 110 -256 -9 -312 -35 -818 -382
-108 -75 -155 -112 -148 -119 10 -10 32 3 401 254 238 161 351 206 540 216
127 6 274 -8 318 -31 16 -8 61 -42 101 -75 40 -34 79 -61 86 -61 23 0 61 56
95 137 117 284 359 625 645 908 188 187 459 488 570 635 50 66 151 217 225
337 219 353 288 429 598 660 220 164 288 205 623 372 286 144 299 149 435 180
76 18 213 56 304 86 91 30 202 63 248 75 46 11 138 45 205 74 67 30 133 57
147 61 34 10 87 51 94 73 6 17 11 18 64 6 87 -19 420 -62 582 -75 176 -14 593
-14 687 1 37 6 95 24 128 40 69 33 272 181 358 259 157 144 285 389 338 646
16 74 15 268 -1 355 -24 131 -130 379 -220 513 -33 49 -132 157 -288 314 -207
207 -402 421 -509 558 -50 65 -137 228 -214 405 -87 198 -130 271 -289 500
-67 96 -149 220 -182 275 -86 143 -106 171 -250 351 -115 146 -264 375 -370
573 -19 35 -39 56 -65 69 -46 23 -466 135 -643 171 -65 13 -96 39 -149 120
-37 59 -40 65 -142 300 -34 79 -107 218 -162 310 -55 91 -105 184 -112 207
-21 65 -100 217 -130 247 -52 52 -126 21 -141 -59 -9 -48 8 -64 68 -64 69 0
100 -20 145 -92 33 -53 46 -92 82 -248 56 -236 82 -309 163 -456 36 -65 86
-158 111 -205 79 -148 120 -194 287 -324 214 -168 234 -187 226 -213 -4 -12
-51 -59 -104 -104 -53 -46 -135 -118 -182 -161 -47 -43 -175 -149 -284 -235
-296 -233 -464 -381 -731 -642 -132 -130 -294 -285 -360 -345 -66 -61 -185
-173 -265 -250 -80 -77 -220 -208 -310 -292 -181 -167 -334 -329 -755 -798
-153 -170 -379 -411 -504 -536 -242 -241 -322 -304 -482 -378 -190 -88 -639
-200 -964 -241 -93 -12 -278 -44 -410 -72 -535 -111 -588 -118 -990 -128 -307
-8 -337 -10 -426 -34 -104 -27 -159 -47 -259 -95 -66 -32 -120 -40 -120 -19 0
6 22 52 49 102 70 131 145 323 180 461 17 66 48 177 70 247 22 70 56 199 76
285 35 151 121 463 187 678 54 178 150 350 339 605 108 147 117 185 66 285
-33 66 -243 323 -351 430 -56 55 -125 128 -154 162 l-53 62 44 55 c25 29 60
79 78 110 19 31 37 56 40 56 4 0 9 -12 12 -27 10 -48 83 -150 176 -243 79 -80
124 -113 106 -77 -13 24 37 -39 84 -108 27 -38 95 -130 153 -203 127 -160 171
-246 250 -486 78 -239 101 -280 218 -396 52 -52 108 -112 124 -133 l29 -38
-79 -73 c-86 -80 -323 -341 -432 -477 -38 -47 -99 -136 -136 -197 -36 -60 -95
-149 -130 -197 -60 -82 -73 -92 -193 -167 -70 -44 -165 -98 -210 -119 -77 -36
-101 -60 -70 -72 14 -5 214 61 273 91 50 26 133 99 165 147 13 20 54 58 90 84
74 55 441 402 509 482 87 102 160 204 206 289 40 71 48 94 48 140 l1 56 120
109 c144 132 344 303 477 408 118 94 177 152 282 282 109 135 252 292 418 457
75 76 192 204 258 285 136 166 596 627 805 808 72 62 162 145 200 185 39 40
158 149 265 243 213 188 252 226 383 369 97 107 244 232 414 350 201 141 434
374 620 623 35 47 73 91 83 98 20 12 27 37 11 37 -5 0 -22 -11 -38 -24 -36
-30 -67 -46 -88 -46 -13 0 -9 8 14 29 17 16 31 35 31 43 0 7 -19 51 -42 97
-55 109 -59 163 -25 286 14 50 31 133 37 185 17 146 43 222 94 275 l43 45 74
0 c58 0 86 6 127 25 89 41 196 122 286 215 90 93 113 131 175 287 21 54 78
190 126 303 48 113 98 243 111 290 37 132 141 516 163 605 11 44 50 161 86
260 79 217 103 350 85 473 -7 40 -9 106 -6 145 52 627 91 924 176 1347 113
562 117 630 60 1140 -11 96 -24 221 -29 277 -10 104 -82 470 -126 643 -14 52
-47 167 -75 255 -28 88 -69 216 -91 285 -22 69 -53 179 -70 245 -59 235 -184
517 -300 681 -83 116 -142 177 -168 172 -30 -6 -19 -27 50 -94 39 -38 81 -89
94 -114 38 -74 85 -219 85 -261 l0 -39 -25 16 c-24 15 -135 172 -187 264 -14
25 -76 140 -138 255 -221 413 -277 472 -505 525 -110 26 -174 48 -730 260
-318 121 -473 175 -558 194 -170 38 -496 83 -687 95 -191 13 -600 12 -745 0z
m750 -29 c94 -6 215 -17 270 -25 55 -8 138 -19 185 -25 47 -6 144 -24 216 -40
128 -28 191 -50 769 -270 357 -136 421 -159 519 -180 225 -50 273 -100 503
-530 219 -407 332 -565 375 -522 19 19 13 96 -11 166 -12 33 -19 61 -17 64 7
7 51 -85 122 -255 43 -104 80 -216 109 -328 24 -93 86 -298 138 -455 52 -157
104 -328 116 -380 83 -383 103 -497 117 -654 8 -92 16 -171 18 -175 15 -24 38
-414 33 -556 -6 -173 -11 -203 -92 -610 -29 -148 -69 -385 -89 -525 -35 -250
-44 -338 -66 -590 -6 -69 -13 -145 -16 -170 l-6 -45 -25 85 c-13 47 -48 135
-78 197 l-53 112 58 194 c87 290 99 363 121 747 14 248 7 675 -15 850 -8 69
-20 199 -26 290 -26 388 -67 625 -181 1030 -81 288 -110 377 -184 560 -35 85
-95 247 -135 360 -39 113 -103 269 -141 348 -60 125 -79 152 -146 224 -99 103
-211 193 -288 229 -62 30 -73 33 -410 99 -294 58 -418 91 -610 160 -205 75
-571 181 -737 215 -148 29 -275 41 -593 55 -673 28 -1308 1 -1930 -85 -154
-21 -545 -18 -545 4 0 8 230 87 280 97 19 3 96 24 170 45 74 22 218 55 320 75
102 19 290 57 419 85 303 65 674 122 856 132 143 8 524 6 680 -3z m-2865 -525
c72 -48 164 -101 203 -118 40 -16 92 -44 117 -62 25 -18 61 -40 80 -50 36 -19
183 -153 430 -391 80 -77 188 -172 240 -211 112 -84 393 -367 564 -568 214
-252 294 -324 468 -421 57 -31 139 -77 183 -102 114 -64 274 -182 391 -289 55
-51 148 -128 207 -172 58 -43 139 -106 179 -139 139 -114 253 -178 463 -262
70 -28 154 -66 185 -85 76 -46 168 -145 257 -276 91 -135 152 -190 290 -262
61 -33 145 -87 187 -120 41 -34 141 -116 223 -181 202 -162 564 -527 658 -661
39 -55 102 -136 140 -180 98 -110 147 -179 185 -255 18 -36 56 -101 84 -145
101 -156 119 -192 111 -231 -3 -20 -57 -192 -120 -382 -63 -191 -146 -460
-184 -597 -145 -519 -179 -587 -445 -891 -164 -188 -277 -271 -333 -245 -23
11 -25 16 -19 52 8 52 36 107 144 282 225 364 350 624 609 1266 98 245 123
321 123 382 0 50 -28 84 -62 76 -43 -11 -75 -44 -231 -236 -194 -239 -418
-463 -682 -682 -310 -257 -397 -319 -449 -319 -17 0 -18 5 -12 48 9 67 55 157
201 397 631 1035 745 1251 745 1414 0 98 -45 124 -133 80 -54 -28 -245 -221
-468 -474 -277 -314 -654 -680 -853 -828 -102 -75 -149 -99 -189 -95 -31 3
-32 4 -31 53 3 95 74 213 320 532 139 181 527 755 664 983 115 192 171 309
168 349 -4 50 -26 59 -81 32 -50 -24 -437 -330 -652 -517 -77 -66 -243 -205
-370 -309 -228 -187 -461 -382 -605 -508 -41 -36 -87 -73 -103 -82 l-28 -17 6
29 c27 126 110 308 216 474 124 194 345 482 668 869 232 278 281 342 305 401
13 32 13 38 0 57 -21 31 -40 28 -142 -23 -179 -89 -453 -290 -1207 -883 -447
-350 -560 -432 -597 -432 -15 0 -18 5 -13 23 27 89 132 258 295 477 108 145
162 211 435 530 250 292 533 637 581 706 46 67 55 123 24 154 -48 48 -186 8
-425 -122 -203 -111 -372 -219 -543 -348 -293 -220 -490 -401 -843 -777 -109
-116 -136 -135 -125 -85 32 130 231 432 485 732 58 69 295 316 527 550 232
234 429 439 438 457 21 43 20 85 -3 114 -70 86 -491 -71 -883 -330 -422 -278
-567 -398 -965 -798 -188 -188 -345 -343 -349 -343 -4 0 -4 18 0 40 24 150
235 441 576 793 181 187 317 311 650 594 124 105 242 208 262 230 71 73 84
155 32 190 -54 35 -225 -6 -434 -104 -149 -70 -414 -225 -630 -368 -326 -216
-604 -446 -867 -714 -95 -96 -173 -171 -173 -165 0 22 98 204 162 299 253 378
668 791 1204 1197 100 76 187 144 193 152 7 8 11 25 9 38 -3 20 -8 23 -43 20
-63 -5 -287 -84 -445 -157 -500 -231 -931 -553 -1337 -996 -75 -83 -139 -146
-141 -141 -11 33 171 316 352 547 207 265 375 444 744 796 161 154 182 178
182 205 0 46 -22 59 -95 57 -185 -5 -498 -131 -905 -364 -322 -184 -500 -313
-704 -509 -60 -58 -106 -98 -101 -90 89 155 353 490 575 727 197 210 506 475
757 648 241 166 262 192 146 182 -214 -18 -746 -264 -1141 -529 -216 -144
-342 -242 -592 -462 -85 -75 -159 -136 -163 -136 -14 0 34 76 114 183 281 374
676 751 1119 1070 183 132 212 156 208 176 -5 22 -36 18 -183 -25 -339 -100
-817 -307 -1157 -502 -318 -183 -534 -342 -757 -557 -92 -88 -94 -89 -87 -55
9 50 105 240 175 345 82 124 198 251 402 442 220 205 263 239 489 388 231 153
337 212 603 337 117 54 218 106 225 115 20 28 -5 32 -103 18 -82 -12 -109 -23
-304 -120 -471 -234 -882 -495 -1242 -792 -139 -114 -391 -366 -490 -489 -97
-123 -169 -291 -169 -396 0 -24 -5 -49 -10 -54 -8 -8 -6 -15 5 -24 8 -7 15
-20 15 -30 0 -10 7 -37 16 -61 38 -104 38 -100 -33 -243 -99 -198 -182 -382
-211 -468 -22 -68 -27 -76 -37 -60 -27 38 -68 189 -72 267 -6 92 15 158 69
226 l32 40 -29 24 c-28 21 -30 28 -29 87 0 42 11 94 32 158 18 52 43 147 56
211 35 167 87 262 248 455 24 27 65 78 91 113 27 34 68 74 94 89 65 38 168
116 259 196 44 37 113 91 154 119 41 28 127 101 190 162 130 127 198 179 442
339 240 158 288 185 413 243 232 107 469 178 566 169 26 -3 76 -30 169 -91z
m-161 -89 c-2 -2 -98 -48 -214 -103 -261 -123 -371 -184 -594 -333 -212 -140
-286 -199 -467 -367 -280 -259 -380 -374 -485 -556 -99 -170 -147 -312 -112
-324 6 -2 63 44 125 102 422 399 998 731 1706 984 130 47 331 105 338 98 3 -3
-10 -16 -28 -29 -18 -13 -91 -67 -163 -118 -425 -308 -798 -655 -1090 -1018
-95 -117 -185 -256 -185 -284 0 -27 40 -23 88 10 22 15 111 90 198 167 262
233 420 353 692 524 249 158 566 313 787 386 133 45 233 66 222 48 -3 -5 -64
-50 -134 -98 -448 -311 -776 -611 -1119 -1025 -148 -179 -328 -436 -341 -488
-16 -64 52 -28 142 75 61 69 250 235 370 324 171 127 585 370 782 458 176 79
367 140 488 156 61 7 94 -10 77 -41 -6 -10 -146 -152 -313 -314 -325 -316
-474 -483 -684 -761 -189 -251 -295 -427 -295 -489 0 -16 3 -30 6 -30 28 0 86
47 161 133 443 501 951 875 1482 1092 151 62 331 114 331 96 0 -5 -96 -81
-212 -169 -265 -200 -422 -331 -608 -507 -381 -362 -663 -723 -770 -988 l-24
-58 22 -21 c20 -20 24 -21 49 -7 15 8 65 55 112 104 324 342 616 590 971 826
378 252 720 427 899 459 87 16 111 9 111 -33 0 -48 -34 -84 -278 -288 -357
-301 -448 -383 -649 -586 -352 -354 -554 -616 -620 -803 -37 -105 -26 -154 35
-152 44 1 69 21 168 135 205 236 529 553 714 698 399 313 768 534 1044 624
158 51 246 57 246 16 0 -35 -65 -106 -458 -498 -399 -397 -547 -560 -720 -790
-155 -206 -247 -358 -286 -474 -37 -111 -14 -157 66 -129 35 13 80 56 264 255
447 485 856 805 1339 1048 130 65 191 87 245 87 35 0 40 -3 40 -23 0 -13 -13
-43 -28 -68 -36 -56 -399 -500 -591 -723 -388 -450 -609 -745 -699 -935 -38
-80 -43 -98 -35 -125 7 -26 14 -32 42 -34 71 -7 98 12 606 412 390 309 791
615 950 726 146 103 331 210 361 210 17 0 -83 -133 -276 -365 -430 -517 -672
-848 -795 -1090 -73 -143 -104 -228 -112 -312 -5 -54 -3 -63 12 -69 27 -11 89
27 185 113 163 145 347 301 600 509 140 115 320 265 400 333 275 234 640 510
640 485 0 -20 -89 -190 -170 -324 -163 -272 -482 -750 -637 -956 -82 -109
-175 -235 -206 -280 -114 -163 -165 -316 -122 -364 23 -25 76 -26 130 -1 156
71 635 515 990 916 200 226 399 424 457 455 62 32 78 24 78 -40 0 -145 -152
-437 -650 -1250 -224 -365 -252 -416 -279 -497 -29 -87 -28 -130 4 -145 59
-27 148 29 475 301 334 278 487 426 694 677 109 130 215 244 230 244 19 0 -4
-112 -49 -230 -77 -202 -267 -651 -355 -840 -104 -225 -155 -319 -302 -564
-140 -233 -158 -271 -158 -336 0 -41 4 -52 26 -69 89 -70 220 24 500 359 180
216 227 317 364 795 53 185 261 832 297 925 13 35 134 -281 157 -413 17 -94
-90 -624 -173 -856 -42 -117 -106 -347 -147 -531 -45 -195 -111 -305 -379
-625 -194 -232 -228 -269 -276 -299 l-26 -17 -7 38 c-9 59 -49 135 -96 184
-23 24 -55 63 -72 85 -16 23 -39 47 -51 53 -12 6 -32 29 -45 51 -12 22 -50 72
-84 112 -33 40 -80 102 -103 138 -23 36 -62 88 -87 115 -58 65 -138 177 -200
282 -27 46 -55 83 -62 83 -7 0 -31 18 -54 39 -23 22 -73 58 -110 80 -82 48
-86 52 -101 115 -30 124 -94 202 -250 307 -108 74 -517 364 -605 430 -77 58
-218 128 -302 149 -43 11 -123 23 -178 26 -154 9 -178 23 -376 224 -245 249
-457 399 -661 469 -346 118 -525 253 -807 606 -155 194 -272 315 -352 364 -30
18 -81 64 -113 102 -68 80 -117 112 -212 138 -80 22 -101 41 -158 141 -33 57
-62 91 -131 149 -113 97 -238 236 -381 426 -142 189 -291 340 -606 615 -95 83
-255 179 -449 271 -36 17 -106 62 -156 100 -239 182 -455 263 -601 226 l-33
-9 0 45 c0 89 66 234 162 353 99 123 391 411 523 516 255 201 536 392 805 547
218 126 599 311 660 320 65 10 95 13 89 7z m-2001 -1811 c34 -8 82 -24 105
-36 69 -35 204 -126 286 -192 49 -41 138 -95 246 -151 252 -131 288 -157 532
-383 238 -219 297 -281 413 -433 136 -178 306 -368 379 -423 69 -53 103 -93
147 -177 44 -85 76 -109 184 -140 73 -21 78 -24 170 -119 52 -54 113 -108 135
-121 66 -38 130 -106 293 -310 181 -227 335 -384 447 -458 109 -72 259 -144
380 -183 130 -41 174 -64 325 -167 172 -117 252 -185 353 -302 89 -102 156
-161 234 -207 37 -21 62 -27 151 -33 194 -13 313 -58 487 -182 50 -35 182
-130 295 -210 113 -80 245 -170 294 -199 143 -85 217 -170 251 -289 6 -21 -2
-16 -48 28 -62 58 -79 62 -146 31 l-45 -20 -40 39 c-55 52 -160 132 -219 166
-65 38 -160 133 -246 246 -81 107 -121 140 -167 140 -40 0 -90 -40 -97 -77 -9
-46 3 -77 54 -144 26 -35 48 -72 49 -82 1 -54 -80 -132 -252 -244 -109 -70
-148 -117 -148 -175 0 -51 37 -91 123 -135 67 -33 75 -35 148 -31 99 6 172 41
288 139 111 93 133 104 201 99 107 -7 259 -2 290 9 30 10 38 7 109 -37 65 -40
84 -47 131 -49 57 -1 107 -22 196 -83 55 -39 84 -76 84 -110 0 -88 -70 -210
-190 -330 -87 -88 -141 -117 -296 -159 -60 -16 -208 -61 -329 -99 -331 -105
-560 -152 -742 -152 -109 0 -149 -11 -159 -43 -5 -15 1 -27 20 -44 35 -30 55
-29 125 6 75 39 144 56 566 141 193 38 373 77 400 86 99 32 251 98 319 138 80
48 199 147 239 199 43 56 78 141 84 202 l6 55 41 -68 c56 -91 117 -174 186
-252 31 -36 73 -91 94 -123 20 -32 60 -86 89 -120 65 -77 100 -133 92 -147 -4
-6 14 -30 39 -54 25 -25 48 -56 52 -71 20 -80 -27 -298 -93 -433 -33 -67 -43
-78 -110 -123 -111 -75 -113 -81 -107 -268 3 -86 10 -232 16 -326 6 -93 11
-192 12 -218 1 -30 7 -52 16 -57 15 -9 91 -15 138 -11 23 2 22 0 -13 -46 -74
-96 -315 -361 -401 -439 -49 -45 -143 -119 -209 -165 -213 -150 -354 -269
-464 -392 -57 -64 -107 -117 -111 -119 -21 -8 -314 -270 -471 -423 -96 -93
-263 -251 -369 -350 -338 -315 -480 -460 -654 -673 -58 -70 -200 -224 -317
-342 -116 -118 -259 -271 -317 -340 -152 -181 -191 -219 -347 -345 -77 -62
-218 -182 -313 -266 -96 -85 -194 -172 -219 -194 l-45 -39 -21 29 c-12 17 -66
75 -122 130 -56 56 -112 122 -127 151 -15 28 -54 132 -87 232 -81 245 -129
343 -239 480 -49 62 -111 145 -138 184 -122 179 -201 285 -302 406 -57 68
-112 166 -148 266 l-14 38 23 -16 c108 -80 172 -116 205 -116 30 0 44 9 98 66
l63 66 63 -7 c56 -6 69 -4 116 20 62 31 91 78 99 161 15 141 -98 260 -262 279
-129 15 -315 65 -315 85 0 8 13 14 211 100 119 52 179 72 250 84 52 8 124 21
162 28 53 9 77 10 112 0 68 -18 88 -15 135 21 124 93 108 86 196 87 90 0 148
22 220 84 93 79 229 177 282 202 31 15 83 52 114 81 43 41 64 53 88 53 23 0
43 12 81 47 46 43 53 46 98 44 40 -1 56 4 101 34 l53 36 -7 -78 c-3 -43 -10
-90 -14 -106 -10 -39 -137 -174 -226 -241 -41 -31 -78 -61 -82 -67 -14 -23 27
-41 125 -57 l102 -16 30 30 c28 29 31 39 45 155 8 68 17 133 20 143 4 10 33
51 66 90 135 161 195 293 233 519 l23 139 66 68 c119 123 166 264 166 497 0
81 6 148 15 183 9 34 15 101 15 173 0 115 -1 121 -37 204 -77 175 -224 281
-338 243 -49 -16 -114 -75 -135 -124 l-18 -38 -7 40 c-3 23 -22 73 -41 112
-48 101 -45 121 30 229 47 65 124 207 205 373 39 79 96 190 128 248 54 97 58
110 58 170 0 58 -4 70 -35 114 -44 61 -44 92 3 241 19 61 38 144 42 185 14
153 36 262 74 362 85 225 91 253 91 426 0 86 -5 175 -11 197 -6 22 -13 57 -16
78 -7 53 -42 67 -168 67 -116 0 -150 14 -241 102 -71 68 -102 74 -138 25 -18
-24 -21 -40 -18 -108 2 -93 -9 -123 -65 -164 -74 -54 -125 -111 -175 -193 -27
-45 -80 -115 -116 -155 -37 -40 -113 -127 -169 -194 -57 -66 -124 -138 -149
-160 -58 -47 -109 -97 -195 -190 -75 -81 -124 -110 -210 -122 -80 -11 -100
-32 -148 -160 -22 -56 -47 -112 -55 -124 -9 -12 -31 -43 -50 -69 -19 -27 -53
-96 -76 -155 -92 -242 -128 -308 -239 -440 -57 -69 -87 -89 -152 -99 -55 -9
-108 -57 -159 -143 -57 -97 -129 -161 -182 -161 -57 -1 -105 -37 -176 -132
-38 -51 -78 -101 -89 -111 -17 -15 -108 -36 -160 -37 -26 0 -85 -65 -134 -147
-46 -77 -59 -90 -128 -134 -78 -49 -104 -78 -171 -192 -22 -37 -43 -59 -57
-62 -13 -3 -34 -7 -48 -10 -14 -3 -38 -23 -54 -45 l-28 -39 0 39 c0 23 -10 54
-23 77 -15 24 -23 54 -24 83 0 45 20 138 34 153 8 10 70 -58 70 -77 0 -19 50
-66 71 -66 25 0 76 66 93 120 8 25 20 80 27 122 10 66 9 84 -4 126 -27 82
-205 440 -224 450 -10 6 -39 8 -64 5 -43 -5 -48 -3 -70 26 -35 48 -66 63 -142
71 -55 6 -79 15 -116 41 -40 28 -57 34 -126 39 -55 4 -94 13 -125 29 -38 21
-54 23 -117 18 -53 -4 -84 -1 -112 10 -37 14 -42 14 -84 -7 -32 -16 -54 -21
-76 -16 -17 3 -44 9 -60 12 -23 5 -43 -2 -88 -29 -73 -44 -94 -50 -126 -38
-19 7 -39 6 -73 -6 -45 -15 -48 -15 -61 2 -18 25 -17 70 2 85 9 7 60 17 114
21 137 10 260 48 344 105 74 51 111 97 160 202 29 61 32 76 32 162 0 85 -3
101 -29 150 -29 57 -186 219 -239 246 -40 21 -102 15 -102 -10 0 -15 16 -25
73 -44 71 -23 76 -27 114 -86 22 -33 58 -99 81 -146 35 -71 42 -94 41 -141 -1
-70 -30 -133 -87 -190 -71 -70 -110 -92 -173 -93 -33 0 -58 4 -62 12 -9 13
-136 84 -197 110 -22 9 -78 36 -124 59 -80 41 -89 43 -171 43 -78 0 -91 -3
-131 -29 -84 -53 -111 -181 -38 -181 10 0 61 18 115 40 87 35 108 40 179 40
44 0 108 -7 140 -15 66 -17 195 -74 195 -85 0 -10 -62 -19 -208 -29 -118 -8
-172 -24 -172 -51 0 -11 -44 -7 -214 21 -65 10 -167 19 -226 19 -100 0 -111 2
-171 32 -41 20 -87 55 -129 98 -58 59 -67 75 -87 143 -25 84 -29 160 -12 222
19 70 131 253 227 374 52 64 112 149 134 189 22 40 65 104 94 143 61 78 226
340 294 464 54 101 147 239 221 330 90 111 168 258 177 332 6 55 -23 105 -123
211 -41 43 -80 92 -86 108 -7 17 -14 102 -17 204 -7 276 23 398 173 710 139
290 188 414 250 635 57 200 81 274 116 352 11 23 19 45 19 49 0 3 33 86 74
183 94 225 241 531 255 531 13 0 71 113 71 138 0 10 -9 27 -20 37 -16 15 -30
16 -80 11 -40 -5 -60 -3 -60 4 0 31 134 39 238 15z m-114 -48 c20 -15 15 -57
-7 -57 -7 -1 -21 -20 -32 -42 -11 -23 -26 -43 -32 -45 -11 -4 -53 93 -53 122
0 27 94 44 124 22z m-966 -2831 c15 -8 37 -25 49 -38 40 -43 144 -209 137
-220 -20 -32 -147 52 -137 91 2 9 -9 35 -25 57 -48 66 -74 124 -57 124 4 0 18
-6 33 -14z m4856 -535 c95 -91 130 -105 257 -106 70 0 112 -5 122 -13 24 -20
45 -174 46 -337 1 -97 -3 -123 -30 -210 -17 -55 -44 -133 -61 -174 -38 -97
-54 -168 -72 -328 -10 -82 -27 -167 -46 -227 -17 -53 -33 -117 -36 -144 -5
-42 -1 -53 31 -102 19 -30 38 -65 41 -78 13 -50 -15 -122 -119 -297 -26 -44
-66 -123 -90 -175 -54 -121 -127 -257 -182 -340 -23 -36 -48 -75 -54 -87 -19
-38 -13 -95 18 -153 16 -31 34 -84 41 -118 6 -34 17 -80 25 -102 8 -22 17 -82
20 -133 13 -198 37 -247 120 -247 79 0 148 48 180 124 35 84 -9 148 -112 161
-113 14 -163 49 -163 117 0 49 36 117 80 148 63 45 125 35 221 -36 41 -30 57
-52 97 -133 l47 -96 -2 -115 c0 -78 -6 -131 -18 -165 -11 -35 -19 -107 -25
-235 -8 -196 -16 -233 -70 -340 -16 -30 -47 -75 -70 -100 -65 -70 -70 -82 -85
-195 -29 -222 -95 -379 -227 -538 l-23 -29 0 93 c0 61 -4 93 -12 96 -6 2 -28
-11 -49 -29 -33 -29 -45 -33 -98 -35 -34 -1 -64 -2 -69 -2 -4 -1 -27 -19 -50
-41 -28 -25 -59 -43 -87 -49 -30 -7 -57 -24 -94 -59 -28 -28 -67 -58 -86 -67
-19 -9 -86 -56 -148 -104 -62 -47 -140 -107 -174 -133 -70 -53 -121 -69 -190
-61 -66 8 -87 0 -169 -62 -77 -58 -89 -62 -151 -43 -32 9 -66 8 -176 -6 -208
-26 -219 -29 -408 -121 -196 -95 -192 -95 -225 -18 -24 56 -58 71 -115 51 -27
-10 -45 -11 -56 -5 -11 8 -24 4 -46 -11 -40 -29 -46 -28 -135 13 -90 42 -149
45 -247 14 -97 -31 -300 -37 -450 -14 -63 10 -136 21 -161 24 -25 4 -61 18
-80 31 -30 22 -44 25 -124 25 -87 0 -92 1 -145 37 -39 25 -71 38 -110 43 -56
8 -78 24 -136 101 -25 33 -56 35 -89 4 l-21 -20 -21 22 c-11 13 -31 42 -42 66
-12 24 -61 85 -107 135 -47 50 -107 126 -132 170 -80 135 -76 121 -64 218 7
47 12 101 12 119 0 34 -5 35 -52 15 -15 -6 -18 -2 -17 31 1 61 28 119 71 152
15 12 16 11 5 -17 -8 -22 -8 -34 0 -42 19 -19 136 129 174 219 l31 76 -11 103
c-11 93 -37 198 -63 248 -6 11 -43 56 -83 100 -79 88 -89 108 -80 158 6 33 10
35 63 45 32 6 100 16 152 22 108 13 339 88 448 144 95 50 320 146 341 146 9 0
42 9 74 20 31 11 70 20 87 20 27 0 30 -3 30 -29 0 -32 22 -61 46 -61 24 0 18
99 -9 150 -19 36 -30 45 -69 56 -25 8 -51 21 -58 29 -8 9 -29 15 -55 15 -32 0
-52 7 -75 26 -30 26 -32 26 -73 11 -113 -42 -219 -44 -372 -5 -58 14 -95 18
-135 13 -72 -9 -105 -9 -162 0 -38 6 -53 4 -81 -14 -44 -27 -58 -27 -88 5
l-24 26 -125 -7 c-96 -5 -141 -13 -195 -32 -38 -14 -85 -28 -104 -30 -34 -6
-34 -5 -27 28 3 18 24 64 46 100 32 53 39 74 34 98 -6 26 0 37 49 88 31 32 60
71 66 86 8 20 17 27 37 27 14 0 36 8 49 18 12 10 41 24 64 32 34 11 45 11 66
0 23 -12 31 -9 109 38 47 29 89 52 95 52 6 0 26 -8 46 -17 34 -16 37 -16 88 5
58 24 92 28 103 11 4 -8 33 -9 88 -5 72 6 85 4 121 -15 27 -15 66 -24 120 -28
69 -6 89 -12 140 -44 34 -21 73 -37 90 -37 75 0 107 -13 151 -59 43 -44 47
-46 101 -46 l56 0 103 -215 c96 -199 104 -219 104 -275 0 -84 -25 -192 -55
-237 -39 -58 -67 -50 -108 32 -17 35 -84 97 -93 87 -9 -9 -44 -168 -44 -201 0
-18 11 -54 25 -80 27 -51 31 -94 14 -160 -9 -38 -16 -45 -64 -69 -64 -31 -88
-60 -181 -214 -68 -114 -72 -118 -111 -125 -55 -9 -85 -26 -181 -98 -114 -85
-171 -110 -257 -110 -46 0 -94 7 -138 22 -76 25 -100 19 -105 -25 -5 -39 43
-86 98 -95 106 -18 270 34 397 125 43 31 105 71 139 90 34 18 69 42 79 53 14
15 31 20 71 20 86 0 125 46 218 262 97 225 131 278 181 278 43 0 61 16 108 97
51 89 78 117 168 176 53 35 73 56 119 132 67 108 98 131 186 140 80 9 100 24
189 144 61 82 106 121 137 121 72 0 164 71 225 174 58 99 86 122 164 141 62
16 74 23 120 73 61 67 142 179 174 242 13 25 51 115 84 200 42 106 74 171 101
205 36 46 68 112 114 236 23 63 43 79 114 89 104 14 143 42 292 205 30 33 83
84 117 113 35 29 95 92 135 140 40 48 112 131 160 184 48 53 116 141 151 196
48 74 82 113 135 156 97 78 102 88 102 193 0 93 14 133 47 133 9 0 44 -26 77
-59z m4452 -558 c-8 -114 -18 -164 -46 -224 -16 -34 -19 -37 -14 -14 3 17 12
59 19 95 7 36 19 104 25 153 7 48 15 87 18 87 3 0 2 -43 -2 -97z m-2982 -154
c15 -12 63 -68 107 -124 95 -124 154 -184 234 -238 77 -52 215 -159 238 -185
18 -20 18 -20 -35 -28 -29 -5 -104 -7 -167 -6 -138 3 -160 -5 -276 -108 -112
-99 -184 -133 -283 -134 -68 -1 -84 3 -138 31 -149 78 -140 151 34 266 121 80
218 159 243 200 29 48 24 83 -19 141 -51 67 -62 89 -62 121 0 72 69 108 124
64z m813 -606 l58 -56 -39 6 c-21 3 -67 23 -102 44 -56 33 -61 40 -47 51 35
26 70 14 130 -45z m-6680 -49 c-3 -3 -12 -4 -19 -1 -8 3 -5 6 6 6 11 1 17 -2
13 -5z m227 -224 c15 -28 26 -57 24 -66 -2 -8 -19 19 -40 61 -39 83 -28 86 16
5z m6727 -207 c-5 -10 -24 -34 -41 -53 -26 -29 -25 -26 7 18 37 52 52 67 34
35z m-7346 -108 c50 -26 79 -44 65 -41 -14 3 -56 9 -95 12 -78 6 -124 -4 -244
-55 -41 -18 -81 -29 -88 -27 -39 15 8 114 69 145 37 19 55 22 123 18 72 -4 89
-9 170 -52z m559 -103 c-76 -95 -225 -156 -418 -171 -100 -7 -111 -10 -132
-34 -22 -25 -22 -25 -43 -6 -12 11 -21 25 -21 31 0 6 -7 19 -16 29 -14 16 -14
18 7 29 12 7 86 16 165 21 78 4 158 14 176 22 18 7 52 12 75 9 58 -6 99 10
168 67 33 27 62 47 64 45 3 -2 -9 -21 -25 -42z m6365 -96 c-23 -23 -312 -106
-325 -94 -2 3 60 24 139 47 78 24 147 44 152 46 15 5 39 6 34 1z m1810 -92
c-17 -38 -47 -109 -66 -159 -55 -141 -78 -180 -155 -261 -88 -92 -180 -163
-273 -210 -63 -31 -79 -35 -135 -32 l-63 3 86 69 c48 37 87 74 87 81 0 8 10
17 22 21 49 15 100 60 185 162 230 277 337 402 340 398 2 -2 -11 -34 -28 -72z
m-8759 -77 c0 -12 -5 -29 -10 -37 -7 -11 -10 -3 -10 28 0 26 4 41 10 37 6 -3
10 -16 10 -28z m30 -53 c0 -16 -27 -43 -43 -44 -5 0 0 14 10 30 19 33 33 39
33 14z m5803 -61 c-59 -28 -75 -32 -92 -23 -12 6 -21 17 -21 26 0 22 37 33
115 33 l70 -1 -72 -35z m2287 -139 c24 -58 54 -119 68 -135 28 -34 24 -51 -15
-76 -15 -9 -68 -52 -117 -95 -50 -43 -91 -76 -93 -74 -2 1 10 32 26 67 45 101
83 253 85 342 0 42 2 77 2 77 1 0 21 -48 44 -106z m63 -20 c9 -18 21 -51 26
-75 l10 -44 -19 25 c-16 21 -47 88 -78 170 -9 24 43 -42 61 -76z m-7393 -414
c69 -11 157 -26 195 -33 l70 -14 -110 -7 c-159 -10 -284 -24 -416 -47 -64 -10
-152 -19 -196 -19 l-80 0 -26 36 c-14 20 -38 45 -53 54 l-27 18 39 10 c21 6
48 13 59 15 11 3 110 5 220 6 154 1 229 -4 325 -19z m7159 -2 c-7 -13 -21 -48
-30 -78 -10 -30 -18 -46 -18 -34 -1 32 26 116 41 125 19 13 20 11 7 -13z m-80
-164 c-11 -76 -24 -188 -30 -249 -5 -60 -20 -152 -33 -204 -20 -84 -24 -91
-29 -61 -4 18 -7 83 -8 144 0 61 -4 172 -8 246 -10 164 -5 184 70 234 29 19
54 34 56 33 1 -2 -6 -66 -18 -143z m-2995 6 c55 0 106 -20 118 -45 16 -36 2
-88 -35 -122 -42 -40 -69 -53 -110 -53 -60 0 -79 38 -92 183 l-7 87 48 -25
c26 -14 61 -25 78 -25z m3023 -32 c-3 -7 -5 -2 -5 12 0 14 2 19 5 13 2 -7 2
-19 0 -25z m-12 -113 c-4 -36 -10 -64 -12 -61 -3 2 -2 34 2 71 4 36 10 64 12
61 3 -2 2 -34 -2 -71z m-18 -97 c-3 -8 -6 -5 -6 6 -1 11 2 17 5 13 3 -3 4 -12
1 -19z m27 -332 c34 -63 33 -78 -5 -111 -38 -32 -57 -29 -80 10 -17 29 -17 35
3 140 l21 110 17 -50 c10 -28 29 -72 44 -99z m-6517 -42 c-77 -175 -114 -218
-181 -212 l-36 3 64 108 c35 59 76 123 90 142 27 35 98 80 104 65 2 -4 -17
-52 -41 -106z m6737 -125 c15 -12 40 -48 57 -81 l30 -60 -34 26 c-26 20 -46
26 -83 26 -62 0 -78 10 -69 41 9 29 44 69 60 69 7 0 24 -9 39 -21z m-7008
-118 c-4 -5 -35 -25 -70 -44 -35 -20 -92 -57 -127 -83 -142 -104 -347 -163
-429 -121 -33 17 -59 62 -43 78 8 8 26 5 70 -12 43 -17 80 -23 143 -23 103 -1
153 19 280 114 97 72 195 123 176 91z m-826 -235 c0 -2 -8 -10 -17 -17 -16
-13 -17 -12 -4 4 13 16 21 21 21 13z m4340 -741 c-5 -27 -9 -72 -9 -98 -1 -54
-21 -101 -51 -117 -21 -11 -200 16 -200 30 0 5 28 29 63 53 34 25 93 77 131
116 39 39 71 69 72 68 1 -1 -2 -24 -6 -52z m-2142 -515 c17 -33 27 -62 22 -65
-4 -2 -34 -11 -66 -20 -71 -18 -78 -12 -89 68 -9 60 6 77 66 77 36 0 39 -3 67
-60z m-144 -77 c7 -21 4 -23 -23 -23 -36 0 -38 11 -14 72 l17 43 6 -35 c4 -19
10 -45 14 -57z m225 -23 c31 -21 193 -62 314 -79 43 -6 91 -18 106 -26 86 -44
134 -118 135 -205 1 -81 -24 -131 -83 -162 -41 -23 -55 -25 -114 -21 l-68 6
-63 -67 c-46 -47 -71 -66 -89 -66 -25 0 -138 70 -206 128 -31 26 -35 34 -39
93 -2 35 -8 68 -13 74 -5 5 -9 17 -9 27 0 10 -18 36 -40 58 -46 46 -50 72 -20
139 11 24 20 52 20 62 0 12 9 21 28 25 15 3 43 11 62 19 47 18 48 18 79 -5z
m116 -950 c4 -8 -10 5 -32 30 -46 50 -98 132 -108 170 -5 20 97 -126 140 -200z
m-385 15 c11 -14 7 -22 -27 -58 -22 -23 -74 -85 -115 -137 -41 -52 -124 -139
-184 -194 -60 -54 -124 -114 -143 -134 -89 -96 -161 -247 -212 -441 -69 -263
-109 -348 -302 -639 -233 -353 -312 -491 -407 -712 -45 -105 -45 -96 -5 95 32
148 59 229 148 430 92 212 119 265 216 429 43 72 128 222 189 333 246 445 425
711 612 907 114 121 195 163 230 121z m471 -85 l30 -45 -34 39 c-19 21 -42 53
-51 70 l-18 31 22 -25 c11 -14 34 -45 51 -70z m5329 -547 c27 -58 92 -256 106
-318 8 -34 -23 27 -61 120 -34 84 -88 265 -79 265 2 0 18 -30 34 -67z m828
-1242 c153 -230 153 -229 2 -112 -170 132 -437 424 -534 585 -32 53 -84 169
-100 222 -4 12 105 -91 241 -230 l249 -251 142 -214z m-5276 205 c-49 -103
-85 -157 -186 -279 -75 -92 -431 -441 -498 -488 l-31 -23 41 60 c22 32 66 101
97 152 92 150 272 368 479 580 108 110 122 121 130 103 7 -15 -1 -41 -32 -105z
m5911 -739 c149 -100 238 -212 272 -344 31 -117 16 -208 -77 -487 -51 -151
-54 -157 -66 -131 -7 15 -24 96 -38 179 -34 207 -46 253 -99 395 -85 230 -126
304 -267 483 -37 48 -68 89 -68 91 0 10 267 -136 343 -186z m-6828 -225 c-21
-20 -106 -72 -93 -57 9 10 101 74 108 74 2 1 -4 -7 -15 -17z m-1971 -123 c-9
-30 -27 -99 -39 -154 -19 -81 -24 -92 -24 -58 -1 56 16 135 46 211 31 76 39
76 17 1z"/>
<path d="M6310 15915 c-191 -39 -600 -193 -789 -298 -113 -62 -222 -159 -246
-219 -22 -56 -24 -171 -3 -220 34 -77 138 -147 245 -165 34 -6 44 6 57 69 7
33 42 53 139 79 38 11 85 28 106 38 20 10 68 21 106 25 39 4 82 13 97 21 16 8
30 9 34 4 3 -5 21 -9 40 -9 19 0 34 -2 34 -4 0 -3 -9 -21 -21 -40 -29 -49 -22
-87 19 -105 37 -17 36 -28 -5 -99 -13 -23 -21 -47 -17 -53 6 -11 57 -8 99 6
11 3 -2 -6 -28 -20 -26 -14 -64 -27 -83 -28 -39 -2 -47 -19 -12 -28 21 -5 21
-6 -9 -13 -17 -4 -34 -14 -37 -21 -10 -26 33 -37 142 -35 142 2 142 2 142 -15
0 -24 -21 -27 -101 -16 -49 7 -77 7 -84 0 -15 -15 14 -29 60 -29 22 0 57 -3
78 -6 33 -6 37 -10 37 -38 0 -51 29 -158 55 -205 14 -24 25 -47 25 -51 0 -4
-25 -32 -55 -63 -51 -52 -68 -88 -46 -101 5 -3 25 14 45 38 37 45 114 96 147
96 10 0 21 5 24 10 3 6 15 10 26 10 10 0 29 11 41 25 15 17 32 25 54 25 26 0
39 8 61 35 34 43 49 44 57 4 3 -18 11 -29 18 -27 18 6 22 66 7 84 -18 22 7 36
49 29 17 -3 33 -2 33 2 1 4 3 19 4 32 1 14 14 34 27 45 14 12 31 31 37 44 7
12 16 20 20 18 4 -3 51 2 104 10 72 11 105 13 134 5 50 -14 67 3 22 23 -21 9
-27 15 -16 15 32 2 7 21 -26 21 -18 0 -56 14 -86 30 -84 46 -339 138 -416 149
-160 24 -199 24 -283 2 -45 -12 -94 -21 -109 -21 -16 0 -50 -7 -77 -15 -27 -8
-51 -13 -53 -11 -2 2 8 23 22 47 35 62 33 87 -10 105 -41 17 -43 32 -14 84 26
46 20 70 -17 70 -40 0 -14 25 47 45 27 9 55 25 62 35 14 20 132 66 222 85 151
34 316 46 705 52 407 6 496 1 562 -33 25 -13 29 -13 26 -1 -5 21 -128 131
-184 164 -62 37 -258 116 -339 137 -33 8 -138 45 -234 81 -96 36 -191 68 -212
71 -21 4 -44 13 -50 20 -15 19 -317 18 -409 -1z m324 -14 c3 -4 32 -11 63 -15
72 -8 112 -20 293 -89 80 -30 174 -63 210 -73 166 -45 374 -141 428 -197 l31
-32 -287 3 c-334 4 -691 -10 -847 -34 -62 -9 -142 -29 -183 -45 -87 -34 -110
-36 -154 -9 -19 11 -79 34 -133 52 -98 32 -104 33 -275 32 -169 0 -179 -1
-277 -32 -101 -32 -163 -40 -163 -23 0 19 112 111 189 155 169 97 485 221 731
286 91 25 363 40 374 21z m-577 -465 c62 -20 114 -40 117 -44 5 -8 -116 -102
-160 -125 -16 -8 -60 -17 -98 -21 -37 -4 -85 -15 -106 -26 -21 -11 -70 -28
-110 -39 -104 -29 -132 -48 -149 -101 -8 -25 -15 -47 -17 -49 -2 -2 -37 8 -78
23 -83 31 -148 86 -167 144 -22 67 5 242 33 214 18 -18 46 -15 159 19 155 46
172 48 324 45 130 -3 148 -6 252 -40z m153 -82 c0 -5 -64 -34 -77 -34 -4 0 6
9 22 20 29 19 55 26 55 14z m447 -379 c92 -16 334 -104 403 -146 l44 -28 -28
-7 c-43 -10 -114 10 -281 81 -84 36 -158 65 -166 65 -8 1 -39 12 -69 25 -54
24 -55 24 -20 24 19 1 72 -6 117 -14z m-132 -21 c22 -8 76 -28 120 -43 44 -16
107 -41 140 -56 33 -15 94 -40 135 -56 70 -27 72 -29 30 -24 -57 8 -108 12
-142 14 -15 0 -33 7 -40 15 -9 9 -37 13 -79 13 -36 0 -87 7 -116 17 -39 13
-67 16 -107 11 -34 -5 -68 -3 -91 5 -30 10 -45 10 -75 0 -32 -11 -43 -10 -70
4 -18 9 -44 16 -57 16 -39 0 -26 14 45 49 96 48 232 64 307 35z m-337 -131
c-21 -2 -57 -2 -80 0 -24 2 -7 4 37 4 44 0 63 -2 43 -4z m236 -28 c-4 -8 -11
-15 -18 -15 -6 0 -21 -3 -33 -6 -17 -5 -23 -2 -23 9 0 14 13 19 67 26 7 0 10
-5 7 -14z m134 -27 c30 -33 42 -72 41 -136 0 -82 -18 -127 -49 -129 -14 0 -49
-12 -78 -24 l-53 -24 -19 25 c-27 36 -49 115 -52 189 l-3 64 45 12 c25 6 59
19 75 28 41 22 68 21 93 -5z m104 -19 c42 -21 88 -22 201 -3 47 8 48 -7 2 -42
-19 -14 -35 -35 -35 -45 0 -12 -7 -19 -19 -19 -37 0 -131 -49 -131 -68 0 -26
-42 -63 -59 -53 -11 7 -11 15 -2 41 17 49 13 120 -9 168 -23 50 -13 54 52 21z
m116 14 c-10 -2 -28 -2 -40 0 -13 2 -5 4 17 4 22 1 32 -1 23 -4z"/>
</g>
</svg>
